<?xml version="1.0" encoding="utf-8"?>
<!-- Generator: Adobe Illustrator 21.0.0, SVG Export Plug-In . SVG Version: 6.00 Build 0)  -->
<svg version="1.1" id="Layer_1" xmlns="http://www.w3.org/2000/svg" xmlns:xlink="http://www.w3.org/1999/xlink" x="0px" y="0px"
	 viewBox="0 0 64 64" style="enable-background:new 0 0 64 64;" xml:space="preserve">
<style type="text/css">
	.st0{fill:#455A64;stroke:#37474F;stroke-linecap:round;stroke-linejoin:round;stroke-miterlimit:10;}
	.st1{fill:#78909C;stroke:#37474F;stroke-linecap:round;stroke-linejoin:round;stroke-miterlimit:10;}
	.st2{fill:#ECEFF1;stroke:#37474F;stroke-linecap:round;stroke-linejoin:round;stroke-miterlimit:10;}
	.st3{fill:none;stroke:#FFFFFF;stroke-linecap:round;stroke-linejoin:round;stroke-miterlimit:10;}
	.st4{fill:#FFCA28;stroke:#37474F;stroke-linecap:round;stroke-linejoin:round;stroke-miterlimit:10;}
	.st5{fill:none;stroke:#37474F;stroke-linecap:round;stroke-linejoin:round;stroke-miterlimit:10;}
	.st6{fill:#B0BEC5;}
	.st7{fill:#37474F;}
	.st8{fill:#455A64;}
	.st9{fill:#9CCC65;stroke:#37474F;stroke-linecap:round;stroke-linejoin:round;stroke-miterlimit:10;}
	.st10{fill:none;stroke:#C5E1A5;stroke-linecap:round;stroke-linejoin:round;stroke-miterlimit:10;}
	.st11{fill:#26C6DA;stroke:#37474F;stroke-linecap:round;stroke-linejoin:round;stroke-miterlimit:10;}
	.st12{fill:#EF5350;stroke:#37474F;stroke-linecap:round;stroke-linejoin:round;stroke-miterlimit:10;}
	.st13{fill:#B0BEC5;stroke:#37474F;stroke-linecap:round;stroke-linejoin:round;stroke-miterlimit:10;}
	.st14{fill:none;stroke:#EF9A9A;stroke-linecap:round;stroke-linejoin:round;stroke-miterlimit:10;}
	.st15{fill:none;stroke:#FFE082;stroke-linecap:round;stroke-linejoin:round;stroke-miterlimit:10;}
	.st16{fill:#D32F2F;stroke:#37474F;stroke-linecap:round;stroke-linejoin:round;stroke-miterlimit:10;}
	.st17{fill:#0097A7;stroke:#37474F;stroke-linecap:round;stroke-linejoin:round;stroke-miterlimit:10;}
	.st18{fill:#689F38;stroke:#37474F;stroke-linecap:round;stroke-linejoin:round;stroke-miterlimit:10;}
	.st19{fill:#FFA000;stroke:#37474F;stroke-linecap:round;stroke-linejoin:round;stroke-miterlimit:10;}
	.st20{fill:#FFA000;}
	.st21{fill:#FF6F00;}
	.st22{fill:#D32F2F;}
	.st23{fill:#0097A7;}
	.st24{fill:none;stroke:#80DEEA;stroke-linecap:round;stroke-linejoin:round;stroke-miterlimit:10;}
	.st25{fill:#689F38;}
	.st26{fill:none;stroke:#B0BEC5;stroke-linecap:round;stroke-linejoin:round;stroke-miterlimit:10;}
	.st27{fill:#78909C;stroke:#37474F;stroke-miterlimit:10;}
	.st28{fill:#78909C;}
	.st29{fill:#B71C1C;}
	.st30{fill:#F57F17;}
	.st31{fill:#006064;}
	.st32{fill:#26A69A;stroke:#37474F;stroke-linecap:round;stroke-linejoin:round;stroke-miterlimit:10;}
</style>
<g>
	<path class="st16" d="M35.9,19.2L31,24.1l-4.9-4.9c-5.3-5.3-13.8-5.3-19.1,0l0,0C1.7,24.4,1.7,33,7,38.3l20.5,20.5c2,2,5.1,2,7.1,0
		L55,38.3c5.3-5.3,5.3-13.8,0-19.1l0,0C49.8,13.9,41.2,13.9,35.9,19.2z"/>
	<path class="st12" d="M35.9,13.2L31,18.1l-4.9-4.9c-5.3-5.3-13.8-5.3-19.1,0l0,0C1.7,18.4,1.7,27,7,32.3l20.5,20.5c2,2,5.1,2,7.1,0
		L55,32.3c5.3-5.3,5.3-13.8,0-19.1l0,0C49.8,7.9,41.2,7.9,35.9,13.2z"/>
	<path class="st14" d="M8.4,30.9c-4.5-4.5-4.5-11.8,0-16.3c2.2-2.2,5.1-3.4,8.1-3.4s6,1.2,8.1,3.4"/>
	<path class="st22" d="M57.4,17.6c-0.6-1.5-1.6-2.9-2.8-4.1c-2.5-2.5-5.7-3.8-9.2-3.8c-0.4,0-0.8,0-1.2,0.1l-2.9,1
		c-1.2,0.4-2.1,1.6-2.1,2.8s0.8,2.4,2.1,2.8l5.2,1.7l1.7,5.2c0.4,1.2,1.6,2.1,2.8,2.1c1.3,0,2.4-0.8,2.8-2.1l1.7-5.2L57.4,17.6z"/>
	<path class="st2" d="M12.6,55.5l3.4-1.1c0.9-0.3,0.9-1.6,0-1.9l-3.4-1.1c-0.3-0.1-0.5-0.3-0.6-0.6l-1.1-3.4c-0.3-0.9-1.6-0.9-1.9,0
		l-1.1,3.4c-0.1,0.3-0.3,0.5-0.6,0.6l-3.4,1.1c-0.9,0.3-0.9,1.6,0,1.9l3.4,1.1c0.3,0.1,0.5,0.3,0.6,0.6l1.1,3.4
		c0.3,0.9,1.6,0.9,1.9,0l1.1-3.4C12,55.8,12.3,55.6,12.6,55.5z"/>
	<path class="st2" d="M54.6,16.4l5.7-1.9c0.9-0.3,0.9-1.6,0-1.9l-5.7-1.9c-0.3-0.1-0.5-0.3-0.6-0.6l-1.9-5.7c-0.3-0.9-1.6-0.9-1.9,0
		l-1.9,5.7c-0.1,0.3-0.3,0.5-0.6,0.6L42,12.6c-0.9,0.3-0.9,1.6,0,1.9l5.7,1.9c0.3,0.1,0.5,0.3,0.6,0.6l1.9,5.7
		c0.3,0.9,1.6,0.9,1.9,0l1.9-5.7C54.1,16.8,54.3,16.5,54.6,16.4z"/>
	<path class="st3" d="M45.5,13.6l2.8-0.9c0.9-0.3,1.6-1,1.9-1.9l0.9-2.8"/>
</g>
</svg>
